Patient4_TMGait_0pt8_01_right_25_EMG.mot
version=1
nRows=33
nColumns=33
inDegrees=no
endheader
time	1LAddLong	2LGlutMax	3LGlutMed	4LIliopsoas	5LSemiMemb	6LBicFemLong	7LRecFem	8LVastMed	9LVastLat	10LGasMed	11LTibAnt	12lTibPost	13LPeroneusLong	14LSol	15LExtDigLong	16LFlexDigLong	17RAddLong	18RGlutMax	19RGlutMed	20RIliopsoas	21RSemiMemb	22RBicFemLong	23RRecFem	24RVastMed	25RVastLat	26RGasMed	27RTibAnt	28RTibPost	29RPeroneusLong	30RSol	31RExtDigLong	32RFlexDigLong
27.95	-0.010376	-0.31464	-0.054626	0.012665	0.02594	0.016937	0.38193	0.005646	0.006409	0.13428	0.003815	-0.14343	-0.014801	-0.41809	0.013123	0.015564	-0.078888	-0.044556	0.30212	0.024414	0.036926	0.12466	-0.028229	0.014496	-0.018311	-0.052185	-0.085754	-0.009613	0.38574	0.058136	-0.007019	-0.027313
27.951	-0.013123	-0.24597	0.036163	0.006561	0.015564	-0.040283	0.36789	0.006409	0.010071	0.15427	0.018616	-0.018005	-0.083008	-0.34119	0.001984	0.016022	-0.074005	-0.004272	0.45502	0.076141	0.041809	0.11047	-0.030212	0.001373	-0.010681	-0.049744	-0.28519	-0.002747	-0.096436	0.075226	-0.001678	-0.010071
27.952	-0.010986	-0.23086	-0.010681	-0.024414	0.016022	0.008392	0.37903	0	0.018768	0.099182	0.009308	0.11871	0.000153	-0.63248	0.015717	0.001984	-0.051117	0.006561	0.61615	0.16632	0.032043	0.09613	-0.029602	-0.024109	-0.019226	-0.052795	-0.20416	-0.003357	-0.18478	0.07309	-0.001221	-0.003815
27.953	-0.007782	-0.20416	0.018005	-0.013885	-0.007782	0.031281	0.37079	0.003815	-0.002441	-0.11948	0.013275	-0.16357	0.003815	-0.36743	0.011749	0.003357	-0.051422	-0.002136	0.46127	0.12268	0.040894	0.075836	0.002136	-0.010223	-0.018768	-0.063324	-0.22492	-0.007629	-0.023956	0.10544	0.000153	0.017395
27.954	-0.005035	-0.18387	0.021973	-0.007782	-0.026398	0.039978	0.37033	0.005798	-0.004425	-0.24612	0.014954	-0.11047	0.10513	0.061646	0.00412	-0.012054	-0.048065	-0.011444	0.34286	0.047607	0.039978	0.046692	0.02243	-0.03891	-0.039673	-0.063477	-0.36331	-0.003204	-0.12482	0.10025	-0.003662	0.031586
27.955	-0.003967	-0.10559	-0.049438	0.002289	-0.00351	0.010681	0.36209	0.005035	0.030975	-0.24078	0.015869	0.032349	0.080261	0.31281	0.020447	-0.011597	-0.031128	-0.042267	0.35187	-0.043182	0.042572	0.029144	-0.006714	-0.074005	-0.055389	-0.062561	-0.18631	-0.002136	-0.21103	0.038605	0.001526	0.035858
27.956	0.00473	-0.039063	-0.078278	0.006866	0.048676	0.032043	0.34622	0.009308	0.022583	0.40192	0.037994	0.014343	-0.017242	0.24597	0.019989	-0.006561	-0.005951	0.002899	0.51529	-0.083466	0.037384	0.02655	-0.027618	-0.017853	-0.034943	-0.059204	0.054169	-0.003357	-0.33188	0.03067	-0.004272	0.081329
27.957	0.002747	0.035095	0.058136	0.011139	0.074158	0.052185	0.34042	0.005188	-0.033875	0.32837	0.049896	0.012817	-0.082245	0.12436	0.001526	-0.06012	0.008545	0.059357	0.42206	-0.057373	-0.057373	0.023956	0.005188	-0.12619	-0.052795	-0.059204	0.038147	-0.002289	-0.41061	0.00351	0	0.076141
27.958	0.019073	0.075226	0.1033	0.004425	0.042572	0.010681	0.30579	0.01358	-0.045929	0.15015	0.028534	0.002441	0.001068	0.091553	-0.007935	0.065918	0.005951	0.051727	0.36591	-0.093384	-0.1239	-0.00061	-0.058441	-0.069275	-0.028076	-0.057373	0.071106	-0.001678	-0.33569	-0.019836	0	0.071259
27.959	0.000458	0.11368	0.071869	0.016327	0.04837	0.018463	0.29663	0.008698	-0.058289	0.48035	0.051117	0.17441	0.010681	0.081787	-0.013123	-0.15854	-0.018005	0.037384	0.46585	-0.14236	-0.1767	0.022736	-0.055542	-0.024109	-0.052032	-0.043335	0.31601	-0.002136	0.000763	-0.029297	-0.007324	0.071411
27.96	-0.003204	0.14053	0.040894	0.00824	0.03891	0.035706	0.31677	0.007935	-0.082092	0.3212	0.017395	0.17471	0.082092	0.13321	0.020752	-0.085602	-0.054169	0.058289	0.40298	-0.09552	-0.18646	0.058289	-0.034943	-0.056763	-0.05127	-0.048065	0.59998	-0.000916	0.2504	-0.054169	-0.004272	0.068207
27.961	-0.001831	0.1619	0.014496	-0.006104	0.071106	0.061951	0.36636	-0.034332	-0.030212	0.12299	-0.016785	-0.29282	0.16022	-0.20493	0.024414	0.23346	-0.083771	0.005646	0.37827	-0.005188	0.027161	0.077209	-0.029602	-0.051117	-0.025635	-0.050659	0.38132	-0.000153	-0.10742	-0.020294	-0.002747	0.072937
27.962	0.003204	0.19318	0.018463	-0.002441	0.044556	0.033112	0.35141	0.044403	-0.040894	0.61874	-0.018311	-0.19852	0.12299	0.011444	0.010223	0.056458	-0.059357	0.066681	0.37949	0.061951	0.096893	0.046387	-0.019379	-0.053864	-0.046844	-0.052032	0.062561	-0.004272	-0.38864	0.061951	-0.00824	0.065613
27.963	-0.000153	0.18402	-0.009155	0.011749	0.029907	0.028229	0.36072	-0.013123	0.05249	0.31921	-0.011902	0.11597	0.072479	0.089264	0.010681	-0.040894	-0.030823	0.007324	0.33936	0.083466	-0.012512	0.075989	-0.052795	-0.063934	-0.033112	-0.054321	-0.32883	-0.000916	-0.22598	0.085907	-0.004883	0.066681
27.964	0.004883	0.21744	0.025787	0.003662	0.030365	0.037537	0.3392	0.001221	0.036774	-0.9317	-0.014191	0.034485	0.040283	0.12192	-0.00946	-0.041046	-0.00946	0.042267	0.28473	0.027924	-0.05722	0.056152	-0.063019	-0.074463	-0.038757	-0.053864	-0.19669	0.000763	0.28336	0.055695	-0.001526	0.06134
27.965	0.000916	0.2179	0.052948	-0.003357	0.051727	0.021057	0.28931	0.002136	0.023193	-0.75394	-0.016785	0.010681	0.032043	0.051727	-0.027924	0.030212	0.023804	0.056458	0.30426	-0.015106	-0.049438	0.055084	-0.000305	-0.024109	-0.030212	-0.049896	-0.091705	-0.006256	0.67612	0.018463	-0.004578	0.056458
27.966	0.002899	0.21988	0.11688	-0.007324	0.046387	0.018768	0.20798	0.003204	0.081635	-0.32501	-0.021973	-0.007324	-0.024872	-0.010071	-0.059357	0.082245	0.044403	0.098114	0.48828	-0.073242	-0.045929	0.041199	-0.010834	-0.046997	-0.040283	-0.047302	-0.16113	0.000458	0.19196	-0.019989	-0.003815	0.04364
27.967	0.000763	0.20355	0.16464	0.001221	0.010529	0.029907	0.24948	-0.007477	0.097809	-0.16357	-0.00824	-0.013275	-0.063171	-0.031586	-0.052338	0.021667	0.065002	0.058289	0.43121	0.008087	-0.040894	0.069275	-0.009003	-0.088043	-0.050507	-0.052032	-0.12924	-0.002594	-0.11719	-0.014343	-0.005188	0.043793
27.968	-0.00946	0.18692	0.008545	0.009613	-0.029144	0.033722	0.30121	-0.008545	0.11032	-0.22095	-0.036469	-0.009308	-0.043182	0.088501	-0.037537	0.001831	0.061035	0.057678	0.2385	0.03891	-0.038147	0.061798	-0.035706	-0.045013	-0.050507	-0.044708	-0.10559	-0.007019	-0.41122	0.00946	-0.00412	0.043488
27.969	0.033569	0.25101	0.024719	0.018921	-0.06073	0.050507	0.30899	-0.001831	0.13962	-0.19669	-0.020599	-0.019073	-0.002899	0.058441	0	-1.7039	0.067444	0.055084	0.35492	0.00061	-0.028687	0.054016	-0.02121	-0.080719	-0.036011	-0.050049	-0.18768	-0.002747	0.068512	0.011292	-0.00473	0.040588
27.97	-0.046082	0.23361	0.081177	0.011597	-0.014343	0.041504	0.28473	-0.002441	0.12344	-0.096893	0.00824	-0.017548	-0.037079	0.10086	-0.031891	0.70465	0.045624	0.039673	0.31143	-0.003052	0.001831	0.072021	-0.047302	-0.027924	-0.040131	-0.039978	-0.060425	-0.000153	0.25131	-0.043182	-0.003967	0.037689
27.971	0.005493	0.2063	0.094147	0.007935	0.12009	0.053253	0.2504	-0.000916	0.10956	0.002289	0.040894	0.085602	-0.009308	0.076752	-0.058746	0.6218	0.028992	0.059052	0.42114	-0.077972	0.039673	0.068817	-0.020905	-0.026245	-0.044556	-0.037231	0.14282	-0.00412	0.16892	-0.04364	-0.004883	0.03418
27.972	-0.001526	0.18738	0.008392	0.020447	0.054626	0.007324	0.27222	0.005035	0.057983	0.053101	0.012207	-0.031281	0.006714	0.10864	-0.024719	-0.35294	0.027618	-0.000458	0.45364	-0.093079	0.0737	0.074463	-0.006714	-0.004425	-0.034637	-0.04364	0.19241	-0.000153	0.39703	-0.045776	-0.002441	0.017548
27.973	-0.012817	0.15869	-0.083008	-0.004272	0.051575	-0.036316	0.27329	0.002899	0.10605	-0.027466	0.010986	-0.074921	-0.009613	0.17975	0.039063	-0.52567	0.077515	0.007629	0.34912	-0.073242	0.044098	0.029602	-0.068054	-0.04364	-0.024872	-0.039063	0.39993	-0.000153	0.57159	-0.043335	-0.002747	0.018005
27.974	-0.007782	0.1326	-0.06073	0.008545	0.037842	-0.004578	0.27359	0.003815	0.066833	-0.085754	0.024414	-0.0177	-0.032959	0.060883	0.050507	0.45624	0.078583	-0.049896	0.54291	-0.014038	0.035553	-0.00885	-0.14923	0.012054	-0.023041	-0.036316	0.51392	-0.005646	0.25757	-0.03006	-0.003967	0.012207
27.975	-0.007782	0.07782	-0.094299	-0.002441	0.018616	0.003204	0.27985	0.005035	0.041351	-0.09964	0.007019	-0.043182	-0.03479	0.076141	0.042877	0.17593	0.03067	-0.023956	0.59525	0.024872	-0.091248	0.048523	-0.18097	-0.008087	-0.039063	-0.032654	0.57388	-0.003052	-0.57068	-0.072479	-0.005341	0.009766
27.976	-0.001526	0.10086	-0.12863	0.002594	0.014343	-0.095673	0.24735	0.000153	0.021973	0.002289	0.00412	-0.010223	-0.014343	-0.070953	0.005341	-0.23086	0.039368	-0.016174	0.43533	0.028839	-0.10712	0.063019	-0.14206	-0.060883	-0.039825	-0.036926	0.28046	-0.003052	-0.51392	-0.11108	-0.003204	0.013123
27.977	-0.000763	0.076599	-0.11505	0.005798	-0.020142	-0.090637	0.23392	0.006256	0.030975	0.15686	0.007477	0.005798	-0.058136	-0.058136	-0.022888	0.57449	0.059662	-0.033264	0.36743	0.072632	-0.087891	0.038147	-0.11459	-0.028992	-0.03952	-0.03006	-0.11261	-0.003357	0.13596	-0.041656	-0.00412	0.004272
27.978	0.007629	0.08316	0.067902	0.01297	-0.016479	-0.076752	0.23453	0.003815	0.031433	-0.091858	0.014801	-0.000153	-0.02182	-0.3894	-0.028992	0.34943	0.019684	-0.031738	0.34454	0.095825	-0.066681	0.027008	-0.11612	-0.087128	-0.043793	-0.033417	-0.1828	-0.003662	0.18799	0.037384	-0.00473	0.003357
27.979	0.009308	0.083618	0.082092	0.01297	0.06958	-0.06073	0.22049	0.004883	0.007629	-0.067139	0.009308	-0.004578	0.091858	-0.32089	-0.032501	-0.19302	-0.027618	-0.003662	0.3157	0.095215	-0.081024	-0.014191	-0.049896	-0.10025	-0.046997	-0.034027	-0.54932	-0.009308	0.23377	-0.037384	-0.002289	0.000763
27.98	0.022888	0.06958	0.020294	0.003967	0.089264	-0.051727	0.18951	0.002899	0.003357	0.38773	0.003357	-0.014801	0.14694	-0.26062	0.003052	-0.21652	-0.031586	-0.009155	0.39047	0.052643	-0.12299	-0.055847	-0.039368	-0.10834	-0.045471	-0.033722	-0.65628	-0.001678	0.1828	-0.049286	-0.004272	0.000458
27.981	0.014801	0.14969	-0.049744	-0.01709	0.090332	-0.027771	0.18036	0.001831	0.031891	0.72769	-0.009308	-0.017853	0.10681	0.10757	0.028687	0.04837	-0.018005	0.023499	0.47211	0.052948	-0.21591	-0.042419	-0.053406	-0.14313	-0.051117	-0.036469	-0.32959	-0.005493	0.10803	-0.052948	-0.005951	-0.002899
27.982	0.004883	0.19486	-0.049438	0.008698	0.076447	0.075226	0.15518	0.000153	0.025024	0.14053	-0.010681	-0.047302	-0.002441	0.11993	0.002441	0.18936	-0.042114	-0.004425	0.41138	0.066528	-0.36514	0.014343	-0.024567	-0.15137	-0.051575	-0.030975	-0.19424	-0.003357	0.029449	-0.004425	-0.000305	0.000458
